<svg width="72" height="72" viewBox="0 0 32 32" fill="none" xmlns="http://www.w3.org/2000/svg">
    <g clip-path="url(#clip0_5861_17926)">
        <path
                d="M17.9523 27.1998H29.848C30.2259 27.1998 30.597 27.0964 30.9243 26.8998C31.2515 26.7031 31.5232 26.4203 31.712 26.0798C31.9008 25.7392 32.0002 25.3529 32 24.9597C31.9998 24.5665 31.9002 24.1803 31.711 23.8399L23.7222 9.43993C23.5334 9.09945 23.2618 8.81668 22.9346 8.62009C22.6075 8.42353 22.2364 8.32 21.8586 8.32C21.4809 8.32 21.1097 8.42353 20.7826 8.62009C20.4555 8.81668 20.1838 9.09945 19.995 9.43993L17.9523 13.1244L13.9584 5.91954C13.7695 5.5791 13.4977 5.29638 13.1705 5.09982C12.8432 4.90329 12.4721 4.7998 12.0943 4.7998C11.7164 4.7998 11.3453 4.90329 11.0181 5.09982C10.6908 5.29638 10.4191 5.5791 10.2301 5.91954L0.288942 23.8399C0.0998197 24.1803 0.000164599 24.5665 2.03726e-07 24.9597C-0.000164192 25.3529 0.0991677 25.7392 0.288005 26.0798C0.476843 26.4203 0.748526 26.7031 1.07573 26.8998C1.40294 27.0964 1.77413 27.1998 2.15196 27.1998H9.61913C12.5777 27.1998 14.7595 25.8474 16.2608 23.2089L19.9057 16.6399L21.858 13.1244L27.7172 23.6843H19.9057L17.9523 27.1998ZM9.49739 23.6807L4.28626 23.6794L12.0977 9.60035L15.9954 16.6399L13.3857 21.345C12.3887 23.0569 11.2561 23.6807 9.49739 23.6807Z"
                fill="#00DC82" />
    </g>
    <defs>
        <clipPath id="clip0_5861_17926">
            <rect width="32" height="32" fill="white" />
        </clipPath>
    </defs>
</svg>